<?xml version="1.0" standalone="no"?><!DOCTYPE svg PUBLIC "-//W3C//DTD SVG 1.1//EN" "http://www.w3.org/Graphics/SVG/1.1/DTD/svg11.dtd"><svg class="icon" width="200px" height="200.00px" viewBox="0 0 1024 1024" version="1.1" xmlns="http://www.w3.org/2000/svg"><path fill="currentColor" d="M762.04714367 350.19532589l-0.16087964-0.80439808A39.61660554 39.61660554 0 0 0 793.53932855 310.90047962v-160.87961633a40.17968417 40.17968417 0 0 0-48.94762326-39.2546264l-361.97913671 80.43980817A40.21990407 40.21990407 0 0 0 351.12038367 230.46067145v352.40679955A179.78297124 179.78297124 0 0 0 250.53040356 552.21990407 181.15044798 181.15044798 0 0 0 69.58105513 733.16925253 181.19066787 181.19066787 0 0 0 250.53040356 914.1990408c99.78558203 0 180.98956836-81.20398633 181.02978829-180.94934846v-309.61282159l330.48695182-73.44154486zM713.09952038 200.17508367v78.42881296l-281.53932853 62.58217075v-78.46903286l281.53932853-62.54195085zM250.53040356 833.75923265A100.67041991 100.67041991 0 0 1 150.02086329 733.16925253 100.6302 100.6302 0 0 1 250.53040356 632.65971222 100.67041991 100.67041991 0 0 1 351.12038367 733.16925253 100.71063981 100.71063981 0 0 1 250.53040356 833.75923265zM954.41894487 672.87961633a40.21990407 40.21990407 0 0 1-40.21990407 40.21990405h-120.65971225v120.65971227a40.21990407 40.21990407 0 1 1-80.43980817 0v-120.65971227h-120.65971223a40.21990407 40.21990407 0 1 1 0-80.43980816h120.65971223v-120.65971222a40.21990407 40.21990407 0 1 1 80.43980817 0v120.65971222h120.65971225a40.21990407 40.21990407 0 0 1 40.21990407 40.21990411z"  /></svg>