<?xml version="1.0" standalone="no"?><!DOCTYPE svg PUBLIC "-//W3C//DTD SVG 1.1//EN" "http://www.w3.org/Graphics/SVG/1.1/DTD/svg11.dtd"><svg class="icon" width="200px" height="200.00px" viewBox="0 0 1024 1024" version="1.1" xmlns="http://www.w3.org/2000/svg"><path fill="currentColor" d="M514.409375 931.371875H175.30624999l0.08437501-169.37812501C121.2125 689.24375001 92.628125 603.03125001 92.628125 512 92.628125 280.75624999 280.75624999 92.628125 512 92.628125S931.371875 280.75624999 931.371875 512c0 220.528125-172.18125001 402.646875-389.175 418.246875v1.06875l-27.7875 0.05625z m-283.5-55.59375l283.32187499-0.05625C713.590625 874.5125 875.778125 711.359375 875.778125 512c0-200.5875-163.190625-363.778125-363.778125-363.778125-200.5875 0-363.7875 163.190625-363.7875 363.778125 0 81.759375 26.5875 159.05625001 76.884375 223.51875001l5.8875 7.54687499-0.075 132.7125z"  /><path fill="currentColor" d="M653.99375001 479.440625h-290.71875001c-15.346875 0-27.796875-12.45-27.796875-27.79687501 0-15.346875 12.45-27.796875 27.796875-27.79687499h290.71875001c15.346875 0 27.796875 12.45 27.79687499 27.79687499 0 15.346875-12.440625 27.796875-27.79687501 27.79687501zM537.06875001 629H363.284375c-15.346875 0-27.796875-12.45-27.796875-27.796875S347.9375 573.40625001 363.284375 573.40625001h173.78437501c15.346875 0 27.796875 12.45 27.79687499 27.79687499s-12.45 27.796875-27.79687501 27.796875z"  /></svg>