<?xml version="1.0" standalone="no"?><!DOCTYPE svg PUBLIC "-//W3C//DTD SVG 1.1//EN" "http://www.w3.org/Graphics/SVG/1.1/DTD/svg11.dtd"><svg class="icon" width="200px" height="200.00px" viewBox="0 0 1024 1024" version="1.1" xmlns="http://www.w3.org/2000/svg"><path fill="currentColor" d="M677.70089877 56.32252839L180.59820247 56.32252839C134.82332918 56.32252839 97.74775309 93.3981045 97.74775309 139.17297778L97.74775309 719.12612347 180.59820247 719.12612347 180.59820247 139.17297778 677.70089877 139.17297778 677.70089877 56.32252839 677.70089877 56.32252839ZM801.97657283 222.02342717L346.29910123 222.02342717C300.52422795 222.02342717 263.44865185 259.14042848 263.44865185 304.87387653L263.44865185 884.82702222C263.44865185 930.56047028 300.52422795 967.67747161 346.29910123 967.67747161L801.97657283 967.67747161C847.7100209 967.67747161 884.82702222 930.56047028 884.82702222 884.82702222L884.82702222 304.87387653C884.82702222 259.14042848 847.7100209 222.02342717 801.97657283 222.02342717L801.97657283 222.02342717ZM346.29910123 304.87387653L801.97657283 304.87387653 801.97657283 884.82702222 346.29910123 884.82702222 346.29910123 304.87387653Z"  /></svg>