<?xml version="1.0" standalone="no"?><!DOCTYPE svg PUBLIC "-//W3C//DTD SVG 1.1//EN" "http://www.w3.org/Graphics/SVG/1.1/DTD/svg11.dtd"><svg class="icon" width="200px" height="200.00px" viewBox="0 0 1024 1024" version="1.1" xmlns="http://www.w3.org/2000/svg"><path fill="currentColor" d="M512.046 448.778a33.47 33.47 0 0 1 33.485 32.84V707.41l59.09-58.097a33.966 33.966 0 0 1 23.808-9.646 33.546 33.546 0 0 1 23.705 9.646 32.707 32.707 0 0 1 0 46.592L535.757 810.132a34.028 34.028 0 0 1-23.91 9.647 33.28 33.28 0 0 1-25.145-11.188l-0.102-0.102L371.753 695.7l-0.614-0.614a32.568 32.568 0 0 1-9.216-23.194 32.041 32.041 0 0 1 9.85-22.784 33.966 33.966 0 0 1 23.808-9.646 33.546 33.546 0 0 1 23.69 9.646l58.911 58.394V481.71a33.562 33.562 0 0 1 33.25-32.84l0.614-0.102zM221.097 803.461c-93.394 0-169.339-74.609-169.339-166.257a164.178 164.178 0 0 1 44.544-112.48A169.472 169.472 0 0 1 205.6 471.561l4.925-0.41-0.102-4.925c-1.536-51.312 26.583-111.97 75.33-162.258 61.476-63.437 143.888-99.758 226.09-99.758 153.942 0 284.077 113.096 302.858 263.04l0.614 4.608h5.954c37.151 0 75.126 17.654 104.064 48.44a170.496 170.496 0 0 1 46.9 116.998c0 90.004-73.175 163.486-164.101 166.154v-0.103H705.915a32.845 32.845 0 1 1-0.205-65.684h97.393a100.49 100.49 0 1 0 0-200.95h-53.161v-32.502c0-129.024-106.732-233.891-237.794-233.891-131.159-0.016-237.788 104.867-237.788 233.891v32.84H221.2a100.49 100.49 0 1 0 0 200.95h97.597a32.845 32.845 0 1 1-0.205 65.684l-97.495-0.204z"  /></svg>