<?xml version="1.0" standalone="no"?><!DOCTYPE svg PUBLIC "-//W3C//DTD SVG 1.1//EN" "http://www.w3.org/Graphics/SVG/1.1/DTD/svg11.dtd"><svg class="icon" width="200px" height="200.00px" viewBox="0 0 1024 1024" version="1.1" xmlns="http://www.w3.org/2000/svg"><path fill="currentColor" d="M613.09672701 442.18181801a23.272727 23.272727 0 0 1-23.27272702-23.27272701V186.18181801a23.272727 23.272727 0 1 1 46.54545501-2e-8v177.10545504l235.52-235.56654603a23.272727 23.272727 0 0 1 29.696-2.699636l3.25818098 2.699636a23.272727 23.272727 0 0 1 0 32.907637L669.789091 395.63636401l176.034909-0.046546a23.272727 23.272727 0 0 1 22.85381801 19.083637l0.41890899 4.18908999a23.272727 23.272727 0 0 1-23.272727 23.27272802z m-456.98327202 454.09745499a23.272727 23.272727 0 0 1-32.95418199-32.907637l235.05454499-234.96145399-176.03490899-0.04654602a23.272727 23.272727 0 0 1-22.90036404-19.083636L158.90618201 605.090909a23.272727 23.272727 0 0 1 23.27272699-23.27272701h232.72727299a23.272727 23.272727 0 0 1 23.27272701 23.27272701v232.72727299a23.272727 23.272727 0 1 1-46.545454 2e-8v-177.05890899z"  /></svg>