<?xml version="1.0" standalone="no"?><!DOCTYPE svg PUBLIC "-//W3C//DTD SVG 1.1//EN" "http://www.w3.org/Graphics/SVG/1.1/DTD/svg11.dtd"><svg class="icon" width="200px" height="200.00px" viewBox="0 0 1024 1024" version="1.1" xmlns="http://www.w3.org/2000/svg"><path fill="currentColor" d="M589.67229629 149.52928355c0 15.53445925 10.35630577 25.89076502 25.89076503 25.89076623h196.76981809l-245.962272 245.96227081c-10.35630577 10.35630577-10.35630577 25.89076502 0 36.247072 10.35630577 10.35630577 25.89076502 10.35630577 36.247072 0l245.96227081-245.962272V408.43693868c0 15.53445925 10.35630577 25.89076502 25.89076623 25.89076501s25.89076502-10.35630577 25.89076503-25.89076501V149.52928355c0-15.53445925-10.35630577-25.89076502-25.89076503-25.89076503H615.56306132c-15.53445925 0-25.89076502 10.35630577-25.89076501 25.89076503z m-168.2899757 416.84132386L175.42004978 812.33287941V615.56306132c0-15.53445925-10.35630577-25.89076502-25.89076623-25.89076501s-25.89076502 10.35630577-25.89076503 25.89076501v258.90765513c0 15.53445925 10.35630577 25.89076502 25.89076503 25.89076503h258.90765513c15.53445925 0 25.89076502-10.35630577 25.89076501-25.89076503s-10.35630577-25.89076502-25.89076501-25.89076623h-196.76981809l245.962272-245.96227081c10.35630577-10.35630577 10.35630577-25.89076502 0-36.247072-7.76722963-10.35630577-25.89076502-10.35630577-36.247072 0z"  /></svg>