<?xml version="1.0" standalone="no"?><!DOCTYPE svg PUBLIC "-//W3C//DTD SVG 1.1//EN" "http://www.w3.org/Graphics/SVG/1.1/DTD/svg11.dtd"><svg class="icon" width="200px" height="200.00px" viewBox="0 0 1024 1024" version="1.1" xmlns="http://www.w3.org/2000/svg"><path fill="currentColor" d="M939.07200001 434.49600001C919.74400001 403.39199999 886.27199999 383.99999999 851.90399999 382.976L638.848 381.95199999c14.208-41.02400001 21.376-83.77600002 21.37600001-127.04 0-21.50400001-1.85599999-43.52-5.95200003-67.26399999l-3.96799997-17.15199999C638.976 121.34400001 595.84 86.912 545.28000001 86.912c-59.45600001 0-107.84000001 48.384-107.84000003 107.90399999 0 3.456 0.128 6.84800001 0.44800003 9.66400002C434.944 310.016 307.90399999 418.944 264.704 418.944c0 0 0 0-0.06400002 0L106.36799999 419.00799998c-20.67200001 0-37.504 16.896-37.50399999 37.56800002l-0.38399999 442.88c0 20.992 18.176 36.28800001 40.95999999 36.92799999l137.216-0.25600001 5.248 0.96000002 4.608-0.63999999 522.24 0.19199998c18.36800001-1.28 36.09600001-6.97600001 51.456-16.768 16.64-10.68800001 30.08-25.728 36.16000001-38.97599999l6.39999998-10.624c35.96799999-85.63199999 79.872-347.96799999 81.66400002-359.04l0.70399999-10.624C956.928 477.056 951.36000001 454.20800001 939.07200001 434.49600001zM132.864 483.328L218.24 483.2l0 389.31199999-85.69600002 0.256L132.864 483.328zM815.74399999 841.6l-4.032 6.39999999c-3.64800001 7.36000001-9.21600003 13.56799999-16 17.92000001-6.20800001 3.968-13.56799999 6.33600001-19.13599999 6.72000001L282.24 872.448 282.24 479.80799999C366.65599999 463.36 498.23999999 334.336 501.82399999 201.344L501.43999999 194.81599999c0-24.19200001 19.64800002-43.90399999 43.84000002-43.90400001 20.54400001 0 38.08000001 13.95200001 42.688 33.98400003l3.584 15.23199998c3.13599998 18.36800001 4.67200001 36.736 4.67199999 54.65600002 0 36.35199999-6.08000002 72.25600001-18.11199999 106.624L548.67200002 445.824l291.45599999 0.06399999 6.912 0.70400001c15.488 0.57600001 29.568 8.704 37.69599999 21.75999998 5.05600001 8.12800001 7.36000001 17.60000001 6.59199999 32.38400003C890.88000001 503.296 846.84800001 766.65600001 815.74399999 841.6z"  /></svg>