<?xml version="1.0" standalone="no"?><!DOCTYPE svg PUBLIC "-//W3C//DTD SVG 1.1//EN" "http://www.w3.org/Graphics/SVG/1.1/DTD/svg11.dtd"><svg class="icon" width="200px" height="200.00px" viewBox="0 0 1024 1024" version="1.1" xmlns="http://www.w3.org/2000/svg"><path fill="currentColor" d="M212 771.99999969a19.91250001 19.91250001 0 0 1-12.00000001-4.01250001 322.98124967 322.98124967 0 0 1-93.12499968-110.62499997A319.91875031 319.91875031 0 0 1 391.99999999 192.0000003h240.00000002q5.9625 0 11.93749967 0.21874968l-46.08124967-46.07500029a19.99999969 19.99999969 0 0 1 28.28749968-28.28749967l80.00000061 79.99999967a19.99999969 19.99999969 0 0 1 0 28.28750062l-80.00000061 79.99999968a19.99999969 19.99999969 0 0 1-28.28749968-28.28749969l45.6250003-45.62500031Q637.74375031 231.99999969 632.00000001 231.99999969H391.99999999c-154.37500033 0-280.00000031 125.625-280.0000003 280.00000031 0 88.90624969 40.82500031 170.56249969 112.0125 224.03125031A19.99999969 19.99999969 0 0 1 212 771.99999969z m214.15624965 134.11875a19.99999969 19.99999969 0 0 0 6e-8-28.2874997l-46.08124971-46.07500029q5.96875031 0.21874969 11.93749969 0.21875061H632.00000001a320.11875001 320.11875001 0 0 0 285.1375003-465.39375 322.98124967 322.98124967 0 0 0-93.12500062-110.62499998 19.99999969 19.99999969 0 1 0-24.02499938 31.98124967C871.175 341.43750031 912.00000031 423.09375031 912.00000031 512c0 154.37500033-125.625 280.00000031-280.0000003 280.00000031H391.99999999q-5.73749997 0-11.4812503-0.2312503l45.6250003-45.62500031a19.99999969 19.99999969 0 0 0-28.28749968-28.28749969l-80.00000061 79.99999968a19.99999969 19.99999969 0 0 0 0 28.28750062l80.00000061 79.99999967a19.99999969 19.99999969 0 0 0 28.28749968 0z"  /></svg>