<?xml version="1.0" standalone="no"?><!DOCTYPE svg PUBLIC "-//W3C//DTD SVG 1.1//EN" "http://www.w3.org/Graphics/SVG/1.1/DTD/svg11.dtd"><svg class="icon" width="200px" height="200.00px" viewBox="0 0 1024 1024" version="1.1" xmlns="http://www.w3.org/2000/svg"><path fill="currentColor" d="M933.03562942 512.42671667A421.44828333 421.44828333 0 1 0 115.4259594 655.36792605 156.98948538 156.98948538 0 0 0 90.13906277 740.71120334 193.16379666 193.16379666 0 0 0 283.30285943 933.875 53.38344946 53.38344946 0 0 0 335.98389444 881.19396417V652.90947751a70.24138083 70.24138083 0 0 0-70.24138083-70.24138083h-17.560345a156.28707175 156.28707175 0 0 0-42.84724164 6.67293118 316.08621249 316.08621249 0 1 1 612.50483826 0A156.28707175 156.28707175 0 0 0 774.99252358 582.66809668H757.43217859a70.24138083 70.24138083 0 0 0-70.24138083 70.24138083v228.28448667a53.38344946 53.38344946 0 0 0 52.681035 52.68103582 193.16379666 193.16379666 0 0 0 193.16379666-193.16379666 156.98948538 156.98948538 0 0 0-25.28689663-85.34327729A421.44828333 421.44828333 0 0 0 933.03562942 512.42671667z"  /></svg>