<?xml version="1.0" standalone="no"?><!DOCTYPE svg PUBLIC "-//W3C//DTD SVG 1.1//EN" "http://www.w3.org/Graphics/SVG/1.1/DTD/svg11.dtd"><svg class="icon" width="200px" height="200.00px" viewBox="0 0 1024 1024" version="1.1" xmlns="http://www.w3.org/2000/svg"><path d="M512 512m-450 0a450 450 0 1 0 900 0 450 450 0 1 0-900 0Z" fill="currentColor" /><path d="M570.9553833 260.09551261c14.25218582-4.03232575 29.50086571-3.82375718 43.89209725-0.5793576a122.12848686 122.12848686 0 0 1 45.60699463 21.48256303c4.91294883 3.68471145 9.36241172 8.25004599 11.61031723 13.97409439 3.47614289 8.5049627 2.54917167 18.65529991-2.5955198 26.30281493a29.01420571 29.01420571 0 0 1-20.39337136 12.67633416 29.61673737 29.61673737 0 0 1-19.16513465-3.93962883c-3.17487739-1.85394309-5.60817741-4.68120552-8.80622886-6.48879982-8.59766029-5.37643411-18.49308014-9.59415436-28.85198593-9.36241172-7.27672599 0.09269692-13.67282889 4.28724311-18.63212586 9.223366a19.69814278 19.69814278 0 0 0-5.44595696 18.0295942l10.63699722 39.4194603c25.49171469 1.29776023 50.98342873 7.92560578 72.8831289 20.99590301a206.64510704 206.64510704 0 0 1 55.80368065 48.9440918 169.77481842 169.77481842 0 0 1 28.759289 55.61828613c6.51197455 21.62160874 8.62083435 44.40193198 6.92911105 66.88098908-1.41363121 18.53942893-5.12151741 36.93981148-11.51761964 54.45957229a213.94500711 213.94500711 0 0 1-86.57913254 104.2379377c-28.92150879 17.93689728-62.10708596 28.78246308-95.98789171 32.90748574a245.09124734 245.09124734 0 0 1-70.44982954-1.04284287 234.43107605 234.43107605 0 0 1-126.57794907-64.98069719 241.70780204 241.70780204 0 0 1-66.78829215-122.52244994 237.6754763 237.6754763 0 0 1 1.06601692-102.10590317 237.35103607 237.35103607 0 0 1 60.06774902-110.51816963 243.74713898 243.74713898 0 0 1 86.53278374-58.05158616c3.36027123-1.2745855 6.67419434-2.7809143 10.26620887-3.3139231 7.64751435-1.32093429 15.82803749 0.46348594 22.085094 5.00564575a28.31897713 28.31897713 0 0 1-6.79006532 49.80154082 185.69555283 185.69555283 0 0 0-83.33473227 61.52772904 179.48484443 179.48484443 0 0 0-35.22491477 84.58614305 181.94131851 181.94131851 0 0 0 10.54430029 89.98575255 184.42096732 184.42096732 0 0 0 87.94641494 97.98088051 172.41668701 172.41668701 0 0 0 79.02431511 18.65529992 201.59311317 201.59311317 0 0 0 66.27845742-11.51761964 160.82954385 160.82954385 0 0 0 50.84438302-29.82530594 156.24103523 156.24103523 0 0 0 34.11254904-42.54798888c4.40311409-8.15734841 8.43543984-16.54644013 10.93826273-25.44536592 7.32307412-25.49171469 8.57448556-53.11546326 0.74157737-78.63035202-6.48879983-21.41304016-19.79084037-40.48547723-36.84711457-55.15480085a161.01493836 161.01493836 0 0 0-24.1707804-17.40388848 94.2266462 94.2266462 0 0 0-24.44887117-9.03797151c5.93261697 22.75714852 12.25919701 45.42160012 18.26133684 68.13240052 1.0196688 5.44595696 2.03933693 10.89191459 2.98948288 16.36104561a95.43170951 95.43170951 0 0 1-22.87302017 65.02704666 98.67610909 98.67610909 0 0 1-56.73065186 32.88431167c-23.73046853 4.6348574-49.24535729 0.25491737-69.63872865-12.67633483-19.46640015-12.12015129-33.83445762-31.33163474-41.41244911-52.60562852a121.24786377 121.24786377 0 0 1-6.85958884-37.07885787c-1.29776023-27.39200592 5.97896576-55.3865435 21.94604895-78.05099443 18.72482278-27.04439163 48.27203728-45.65334342 79.95128633-54.73766371-2.31742837-8.75988007-4.72755432-17.51976013-7.06815742-26.2796402a76.56784036 76.56784036 0 0 1 4.31041717-57.98206329c4.91294883-9.94176865 12.23602295-18.58577706 20.71781159-25.76980546a85.65216065 85.65216065 0 0 1 32.44400046-17.42706321m-75.64086914 206.15844704a65.88449501 65.88449501 0 0 0-17.00992607 31.70242309c-2.31742837 10.75286888-2.31742837 21.94604896-0.23174263 32.7220919 2.50282287 11.91158273 8.75988007 23.54507468 19.14195992 30.59005737 8.04147743 5.60817741 18.5162542 7.32307412 28.11040923 5.4691317 17.75150276-3.05900573 32.25860596-19.14195992 32.74526596-36.91663742-0.69522858-4.40311409-1.41363121-8.80622886-2.68821739-13.07029725-6.62784554-24.68061447-13.32521461-49.31488015-19.92988608-73.99549529-14.9937632 4.54215982-29.26912308 12.21284889-40.13786294 23.4987259z" fill="#ffffff" /></svg>