<?xml version="1.0" standalone="no"?><!DOCTYPE svg PUBLIC "-//W3C//DTD SVG 1.1//EN" "http://www.w3.org/Graphics/SVG/1.1/DTD/svg11.dtd"><svg class="icon" width="200px" height="200.00px" viewBox="0 0 1024 1024" version="1.1" xmlns="http://www.w3.org/2000/svg"><path fill="currentColor" d="M512 920.35247609c-12.30687226 0-24.48281872-4.18957325-34.30213107-11.65225154-6.67713313-5.10604283-66.77132575-51.84597056-137.73222335-115.998812-94.52724811-85.49348089-162.3459665-159.98933238-201.62321731-221.52369092-17.80568695-27.88684817-34.82582876-55.51184611-47.9182448-86.67179792-15.71090032-37.18246285-23.30450165-73.84123075-23.30450166-112.33293507 0-70.82997456 25.3992883-137.60129891 71.61551972-188.13802802 47.52547289-51.84597056 111.02369361-80.5183625 178.84241198-80.5183625 75.93601739 0 147.28968825 37.18246285 194.42238787 99.37144206 47.13269964-62.18897923 118.4863705-99.37144207 194.42238787-99.37144206 67.81871838 0 131.31693906 28.54146891 178.84241197 80.5183625 46.21623146 50.5367291 71.61551972 117.30805348 71.61551971 188.13802802 0 87.19549563-41.24111305 151.87203339-71.22274642 199.00473439-39.14632643 61.53435851-106.96504478 136.03021001-201.62321733 221.5236909-70.96089897 64.15284143-131.05509164 110.89276921-137.73222335 115.99881201C536.48281872 916.29382729 524.30687226 920.35247609 512 920.35247609L512 920.35247609zM317.57761212 156.01719079c-53.02428761 0-102.77547154 22.51895653-140.21978323 63.49822071-37.31338725 40.84833979-57.86848158 95.05094581-57.86848159 152.78850295 0 31.29087626 6.28435986 61.40343406 19.11492843 91.90876519 11.52132708 27.36315049 27.36315049 53.02428761 43.85959597 78.94727219C271.23045764 682.20141664 500.085901 859.73458713 509.77428896 867.32818847c0.78554515 0.65462074 1.70201474 0.78554515 2.22571104 0.78554515 0.52369631 0 1.4401659-0.13092442 2.22571104-0.78554515 9.68838794-7.46267692 238.5438327-185.12677184 327.17949282-324.16823664 29.58886154-46.34715447 63.10544882-98.9786702 63.10544884-170.85603738 0-57.73755715-20.5550943-111.94016319-57.86848159-152.78850295-37.44431169-40.97926419-87.19549563-63.4982207-140.08885881-63.49822071-70.30627825 0-135.89928557 41.37203607-171.24881065 107.88151301C530.59123212 272.40877468 521.68838794 277.64574054 512 277.64574054c0 0 0 0 0 0-9.68838794 0-18.59123212-5.36789028-23.17357725-13.87796119C453.60782211 197.25830245 387.88389037 156.01719079 317.57761212 156.01719079L317.57761212 156.01719079z"  /></svg>