<?xml version="1.0" standalone="no"?><!DOCTYPE svg PUBLIC "-//W3C//DTD SVG 1.1//EN" "http://www.w3.org/Graphics/SVG/1.1/DTD/svg11.dtd"><svg class="icon" width="200px" height="200.00px" viewBox="0 0 1024 1024" version="1.1" xmlns="http://www.w3.org/2000/svg"><path fill="currentColor" d="M512 920.35247609c-12.30687226 0-24.48281872-4.18957325-34.30213107-11.65225154-6.67713313-5.10604283-66.77132575-51.84597056-137.73222335-115.998812-94.52724811-85.49348089-162.3459665-159.98933238-201.62321731-221.52369092-17.80568695-27.88684817-34.82582876-55.51184611-47.9182448-86.67179792-15.71090032-37.18246285-23.30450165-73.84123075-23.30450166-112.33293507 0-70.82997456 25.3992883-137.60129891 71.61551972-188.13802802 47.52547289-51.84597056 111.02369361-80.5183625 178.84241198-80.5183625 75.93601739 0 147.28968825 37.18246285 194.42238787 99.37144206 47.13269964-62.18897923 118.4863705-99.37144207 194.42238787-99.37144206 67.81871838 0 131.31693906 28.54146891 178.84241197 80.5183625 46.21623146 50.5367291 71.61551972 117.30805348 71.61551971 188.13802802 0 87.19549563-41.24111305 151.87203339-71.22274642 199.00473439-39.14632643 61.53435851-106.96504478 136.03021001-201.62321733 221.5236909-70.96089897 64.15284143-131.05509164 110.89276921-137.73222335 115.99881201C536.48281872 916.29382729 524.30687226 920.35247609 512 920.35247609L512 920.35247609z"  /></svg>