<?xml version="1.0" standalone="no"?><!DOCTYPE svg PUBLIC "-//W3C//DTD SVG 1.1//EN" "http://www.w3.org/Graphics/SVG/1.1/DTD/svg11.dtd"><svg class="icon" width="200px" height="200.00px" viewBox="0 0 1024 1024" version="1.1" xmlns="http://www.w3.org/2000/svg"><path fill="currentColor" d="M512 90.125a172.5852269 172.5852269 0 0 1 172.5852269 172.5852269v191.76136385a172.5852269 172.5852269 0 1 1-345.1704538 1e-8v-191.76136386A172.5852269 172.5852269 0 0 1 512 90.125z m0 61.36363613a111.22159076 111.22159076 0 0 0-111.22159076 111.22159077v191.76136386a111.22159076 111.22159076 0 1 0 222.44318151 0v-191.76136386A111.22159076 111.22159076 0 0 0 512 151.48863613z"  /><path fill="currentColor" d="M212.8522731 473.6477269a299.1477269 299.1477269 0 0 0 598.2954538 0 30.68181849 30.68181849 0 1 0-61.36363614 0 237.78409076 237.78409076 0 0 1-475.56818151 0 30.68181849 30.68181849 0 1 0-61.36363615 0z"  /><path fill="currentColor" d="M481.31818151 742.11363613v123.609375a30.68181849 30.68181849 0 1 0 61.36363698 0V742.11363613a30.68181849 30.68181849 0 1 0-61.36363696 0z"  /><path fill="currentColor" d="M416.11931849 926.20454538h193.94744265a30.68181849 30.68181849 0 1 0 0-61.36363614H416.11931849a30.68181849 30.68181849 0 1 0 0 61.36363614z"  /></svg>