<?xml version="1.0" standalone="no"?><!DOCTYPE svg PUBLIC "-//W3C//DTD SVG 1.1//EN" "http://www.w3.org/Graphics/SVG/1.1/DTD/svg11.dtd"><svg class="icon" width="200px" height="200.00px" viewBox="0 0 1024 1024" version="1.1" xmlns="http://www.w3.org/2000/svg"><path fill="currentColor" d="M508.74465695 115.68640098c-218.54462695 0-396.31269991 177.76807295-396.31269992 396.31269989 0 218.50865156 177.76807295 396.31449902 396.31269989 396.31449906 218.50865156 0 396.31359902-177.80584746 396.31359902-396.31449906C905.05825683 293.45447392 727.25330849 115.68640098 508.74465695 115.68640098zM508.74465695 852.68991201c-187.87182275 0-340.6890129-152.85496464-340.68901292-340.69081201 0-187.87182275 152.81808924-340.68991201 340.68901289-340.68991201 187.83674647 0 340.69081201 152.81808924 340.69081202 340.68991201C849.43456894 699.83494823 696.5805043 852.68991201 508.74465695 852.68991201z"  /><path fill="currentColor" d="M337.24083711 459.85335575c-28.78858125 0-52.14574511 23.32118848-52.14574511 52.14574512 0 28.79038036 23.35716386 52.14754423 52.14574511 52.14754424 28.78948037 0 52.14664425-23.35716386 52.14664426-52.14754424C389.38748137 483.17364426 366.03031749 459.85335575 337.24083711 459.85335575z"  /><path fill="currentColor" d="M508.74465695 459.85335575c-28.78858125 0-52.14574511 23.32118848-52.14574513 52.14574512 0 28.79038036 23.35716386 52.14754423 52.14574513 52.14754424 28.79038036 0 52.14664425-23.35716386 52.14664422-52.14754424C560.89130205 483.17364426 537.53413818 459.85335575 508.74465695 459.85335575z"  /><path fill="currentColor" d="M680.24937674 459.85335575c-28.78948037 0-52.14574511 23.32118848-52.1457451 52.14574512 0 28.79038036 23.35716386 52.14754423 52.14574512 52.14754424 28.78858125 0 52.14574511-23.35716386 52.14574511-52.14754424C732.39602188 483.17364426 709.03795799 459.85335575 680.24937674 459.85335575z"  /></svg>