<?xml version="1.0" standalone="no"?><!DOCTYPE svg PUBLIC "-//W3C//DTD SVG 1.1//EN" "http://www.w3.org/Graphics/SVG/1.1/DTD/svg11.dtd"><svg class="icon" width="200px" height="200.00px" viewBox="0 0 1024 1024" version="1.1" xmlns="http://www.w3.org/2000/svg"><path fill="currentColor" d="M658.11116179 255.2121258H365.88883821c-148.11783868 0-222.1767581 0-263.81530372 48.16024556C60.49769744 351.53261701 70.28024734 425.84237091 89.97076439 574.58729622l18.56176138 141.09446948c15.36362001 116.57538619 23.01407568 174.8944336 62.39510986 209.8231534 39.38103418 34.92871978 97.44924701 34.92871978 213.64838121 34.92871977h254.97338367c116.19913426 0 174.33005568 0 213.64838119-34.92871979 39.38103418-34.92871978 47.03148986-93.2477672 62.39510985-209.88586196l18.56176131-141.0944696c19.62780842-148.6195079 29.41035833-222.99197052-12.16547872-271.15221616-41.6385457-48.16024561-115.69746501-48.16024561-263.87801235-48.16024556zM548.49643612 399.50473662c0 26.33763429 15.36362001 53.67860709 40.6979159 76.12830494 25.8359651 22.95136704 54.11756765 33.61183806 69.04222707 33.61183802a36.55914478 36.55914478 0 0 1 0 73.18099821c-35.99476694 0-77.06893472-18.87530458-109.74014297-45.3383562v179.4721653a109.74014301 109.74014301 0 1 1-73.11828957-103.4692777V399.44202794a36.55914478 36.55914478 0 1 1 73.11828957 0z"  /><path fill="currentColor" d="M135.74808121 73.03942807m62.70865316 0l627.08653126 0q62.70865309 0 62.70865316 62.70865314l0 0q0 62.70865309-62.70865316 62.70865316l-627.08653126 0q-62.70865309 0-62.70865316-62.70865316l0 0q0-62.70865309 62.70865316-62.70865314Z"  /></svg>