<?xml version="1.0" standalone="no"?><!DOCTYPE svg PUBLIC "-//W3C//DTD SVG 1.1//EN" "http://www.w3.org/Graphics/SVG/1.1/DTD/svg11.dtd"><svg class="icon" width="200px" height="200.00px" viewBox="0 0 1024 1024" version="1.1" xmlns="http://www.w3.org/2000/svg"><path fill="currentColor" d="M892.49777778 135.16799997v-1.82044443-1.82044441-3.6408889-1.82044445s0-1.82044446-1.82044446-1.82044444c0 0 0-1.82044446-1.82044442-1.82044445l-1.82044446-1.82044443-1.82044445-1.82044445-1.82044444-1.82044445-1.82044444-1.82044445s-1.82044446 0-1.82044445-1.82044442c-1.82044446 0-1.82044446-1.82044446-3.64088889-1.82044447H874.29333333c-1.82044446 0-1.82044446 0-3.64088886-1.82044443H865.19111113h-1.82044446-1.82044446l-527.92888887 72.81777777h-3.64088889-1.82044445s-1.82044446 0-1.82044446 1.82044444c0 0-1.82044446 0-1.82044442 1.82044446l-1.82044446 1.82044443-1.82044445 1.82044445-1.82044444 1.82044445-1.82044443 1.82044442-1.82044447 1.82044446s0 1.82044446-1.82044442 1.82044446c0 0 0 1.82044446-1.82044445 1.82044441v504.26311114c-23.66577779-14.56355555-50.97244446-23.66577779-81.92000001-23.66577779-74.63822221 0-136.53333334 52.7928889-136.53333334 118.3288889s61.89511111 118.3288889 136.53333334 118.32888889 136.53333334-52.7928889 136.53333331-118.32888891V785.06666667 413.696L837.88444445 348.16v302.19377778c-23.66577779-14.56355555-50.97244446-23.66577779-81.92000001-23.66577779-74.63822221 0-136.53333334 52.7928889-136.53333332 118.3288889s61.89511111 118.3288889 136.53333334 118.3288889 136.53333334-52.7928889 136.53333332-118.3288889v-5.46133336-604.38755552z m-664.46222224 728.1777778c-45.51111113 0-81.92000001-29.12711115-81.91999998-63.71555555s36.40888889-63.71555556 81.92-63.71555554 81.92000001 29.12711115 81.91999999 63.71555554-36.40888889 63.71555556-81.91999999 63.71555555z m527.92888892-54.61333333c-45.51111113 0-81.92000001-29.12711115-81.92-63.71555555s36.40888889-63.71555556 81.91999998-63.71555558 81.92000001 29.12711115 81.92000001 63.71555558-36.40888889 63.71555556-81.92000001 63.71555555zM837.88444445 291.72622221l-473.31555556 65.53600002v-127.43111113L837.88444445 166.11555555v125.61066669z"  /></svg>