<?xml version="1.0" standalone="no"?><!DOCTYPE svg PUBLIC "-//W3C//DTD SVG 1.1//EN" "http://www.w3.org/Graphics/SVG/1.1/DTD/svg11.dtd"><svg class="icon" width="200px" height="200.00px" viewBox="0 0 1024 1024" version="1.1" xmlns="http://www.w3.org/2000/svg"><path fill="currentColor" d="M912.56779039 162.32126559c11.1012066 13.10042081 8.81471577 33.28114676-5.10649659 45.07514046L129.77880546 866.28298461c-13.92023507 11.79106262-34.20062879 10.72989647-45.29988089-2.36857049-11.0992528-13.10237536-8.81471577-33.28407791 5.10454204-45.07514051L867.26693156 159.9526958C881.18912115 148.15967865 901.46756033 149.21986751 912.56779039 162.32126559z"  /><path fill="currentColor" d="M499.29333785 798.34586543v0.00390836l-100.05450025-78.79599738-44.69894475 37.87171728 138.64343302 109.17799057c7.47702091 6.12955471 16.10021868 8.88995522 24.52408166 8.88995525 20.01168174 0 38.93288339-15.53836707 38.93288336-38.33390109l0.37912761-251.28242798-57.47886581 48.6993262-0.24721484 163.76942879zM709.20884457 502.93122923c0 50.89885321-25.10742971 99.15651551-67.1935209 129.09977662-12.91281118 9.19872906-15.9165181 27.11934635-6.74026289 40.054632 5.60288002 7.86689709 14.44300138 12.05391168 23.4091733 12.05391093a28.67201095 28.67201095 0 0 0 16.63373353-5.30583133c57.15836611-40.71126491 91.29743517-106.46156102 91.29743517-175.9034648 0-28.23718653-5.57161149-55.70048358-15.97123697-81.1039854l-46.99325299 39.81523466a156.44777168 156.44777168 0 0 1 5.55793175 41.28972732zM861.92787716 502.93122923c0 89.54934491-36.17346007 173.0971395-101.85828741 235.24474632-11.50378597 10.89307779-12.01189455 29.06579556-1.11881746 40.59694094a28.64465082 28.64465082 0 0 0 20.85201589 8.9700796c7.08030521 0 14.18015302-2.59526467 19.73319914-7.84735445 77.24333277-73.12080903 119.79063055-171.47118996 119.79063128-276.95561767 0-64.72626069-16.72069813-127.86174878-47.59125806-183.70587106l-44.82401807 37.97724725c22.75840257 44.84258339 35.01653467 94.70860641 35.01653468 145.71982905zM130.15695654 702.92004359l67.48275213-57.17400037-62.7974003-0.00488566 1.05334935-249.13469017 147.94085247-0.22180924a57.38408377 57.38408377 0 0 0 37.45154985-13.97397803L500.14832899 227.79210178l-0.2423284 161.86011028 57.48081968-48.70030348 0.23255776-154.42119809C557.61156055 163.73224534 538.69133691 148.20071776 518.68649469 148.20071776c-8.43949654 0-17.06953453 2.76040054-24.5543729 8.90558946L283.75247673 338.97516882l-147.93303575 0.21008339c-32.0196679 0.05276498-57.96352339 25.68393823-58.00944888 57.30689045L77.44356766 645.65712407c-0.06839925 29.95498629 23.10235328 54.5748266 52.71338888 57.26291952z"  /></svg>