<?xml version="1.0" standalone="no"?><!DOCTYPE svg PUBLIC "-//W3C//DTD SVG 1.1//EN" "http://www.w3.org/Graphics/SVG/1.1/DTD/svg11.dtd"><svg class="icon" width="200px" height="200.00px" viewBox="0 0 1024 1024" version="1.1" xmlns="http://www.w3.org/2000/svg"><path fill="currentColor" d="M812.38906251 164.50507813h37.42294922c30.45322265 0 55.14345703 24.69023437 55.14345703 55.14785157v583.97343749c0 30.45761719-24.69023437 55.14697266-55.14345703 55.14697265h-37.42294924c-30.45761719 0-55.14785156-24.68935547-55.14785155-55.14697265V219.6529297c-0.00087891-30.45761719 24.68935547-55.14785156 55.14785155-55.14785158zM646.26962891 544.81748048L230.39316407 843.59726563c-31.80146485 22.85068359-76.10449218 15.59003906-98.95253907-16.2114258a70.90576172 70.90576172 0 0 1-13.32070313-41.37099605V235.47148438c0-39.15966798 31.74345703-70.903125 70.90312502-70.903125a70.89785155 70.89785155 0 0 1 39.34160155 11.91445313l416.32822265 277.66933593c25.33623047 16.89609375 32.17851562 51.13740234 15.28154298 76.47802734a55.1408203 55.1408203 0 0 1-13.70478516 14.1873047z m0 0"  /></svg>