<?xml version="1.0" standalone="no"?><!DOCTYPE svg PUBLIC "-//W3C//DTD SVG 1.1//EN" "http://www.w3.org/Graphics/SVG/1.1/DTD/svg11.dtd"><svg class="icon" width="200px" height="200.00px" viewBox="0 0 1024 1024" version="1.1" xmlns="http://www.w3.org/2000/svg"><path d="M512 62C263.465 62 62 263.51 62 512.045 62 760.625 263.465 962 512 962s450-201.51 450-450.045C962 263.375 760.4 62 512 62z" fill="currentColor" /><path d="M358.4 307.2m51.2 0l0 0q51.2 0 51.2 51.2l0 307.2q0 51.2-51.2 51.2l0 0q-51.2 0-51.2-51.2l0-307.2q0-51.2 51.2-51.2Z" fill="#ffffff" /><path d="M563.2 307.2m51.2 0l0 0q51.2 0 51.2 51.2l0 307.2q0 51.2-51.2 51.2l0 0q-51.2 0-51.2-51.2l0-307.2q0-51.2 51.2-51.2Z" fill="#ffffff" /></svg>