<?xml version="1.0" standalone="no"?><!DOCTYPE svg PUBLIC "-//W3C//DTD SVG 1.1//EN" "http://www.w3.org/Graphics/SVG/1.1/DTD/svg11.dtd"><svg class="icon" width="200px" height="200.00px" viewBox="0 0 1024 1024" version="1.1" xmlns="http://www.w3.org/2000/svg"><path fill="currentColor" d="M954.10514391 215.99573332c-49.15200002-56.06968853-111.77528853-99.9424-180.95217813-126.70293331a36.29966182 36.29966182 0 0 0-49.5160885 33.86026666v448.37546665a189.8723552 189.8723552 0 0 0-118.32888858-41.32408851c-105.40373333 0-191.14666668 85.74293333-191.14666664 191.14666666S499.90425539 912.49777814 605.3079887 912.49777814s191.14666668-85.74293333 191.14666669-191.14666667c0-2.00248853-0.1820448-4.00497813-0.36408959-6.00746667 0-1.09226668 0.36408853-2.00248853 0.36408958-3.09475627V180.49706667c38.59342187 21.66328853 73.72800001 50.06222188 103.03715523 83.3763552 13.2892448 15.10968853 36.40888853 16.56604482 51.33653334 3.27680001 15.10968853-13.1072 16.56604482-36.04480001 3.27679996-51.15448854zM605.3079887 839.68c-65.17191147 0-118.32888852-53.15697814-118.32888954-118.32888853s53.15697814-118.32888852 118.32888954-118.3288896 118.32888852 53.15697814 118.32888858 118.3288896-53.15697814 118.32888852-118.32888858 118.32888853zM122.89021058 293.54666666h418.70222189c20.02488853 0 36.40888853-16.38399999 36.40888957-36.40888853s-16.38399999-36.40888853-36.40888957-36.40888961h-418.70222188a36.40888853 36.40888853 0 1 0 0 72.81777814zM377.75243245 457.38666667h-254.86222186c-20.02488853 0-36.40888853 16.38399999-36.40888853 36.40888852s16.38399999 36.40888853 36.40888852 36.4088896h254.86222187c20.02488853 0 36.40888853-16.38399999 36.40888961-36.4088896s-16.38399999-36.40888853-36.40888961-36.40888852zM268.52576577 694.0444448h-145.63555518c-20.02488853 0-36.40888853 16.38399999-36.40888853 36.40888854s16.38399999 36.40888853 36.40888853 36.40888853h145.63555518c20.02488853 0 36.40888853-16.38399999 36.4088896-36.40888853s-16.38399999-36.40888853-36.4088896-36.40888854z"  /></svg>