<?xml version="1.0" standalone="no"?><!DOCTYPE svg PUBLIC "-//W3C//DTD SVG 1.1//EN" "http://www.w3.org/Graphics/SVG/1.1/DTD/svg11.dtd"><svg class="icon" width="200px" height="200.00px" viewBox="0 0 1024 1024" version="1.1" xmlns="http://www.w3.org/2000/svg"><path fill="currentColor" d="M207 864l-38 0c-30.92800001 0-56.00000001-25.072-55.99999999-56.00000001l0-592.99999997c0-30.92800001 25.072-56.00000001 56-56.00000002l37.99999999 0c30.92800001 0 56.00000001 25.072 56 56L263 808.00000001c0 30.92800001-25.072 56.00000001-56 55.99999999zM375.686 477.809l422.304-303.4c32.294-23.20100003 77.282-15.83 100.484 16.464A72.00000002 72.00000002 0 0 1 911.99999999 232.88300003L912 791.936c0 39.76400001-32.23500001 72.00000002-72.00000001 72.00000001a72.00000002 72.00000002 0 0 1-39.94999999-12.10000002l-422.76199999-281.95899999c-25.73-17.16-32.677-51.93-15.51700002-77.66a56.00000001 56.00000001 0 0 1 13.91500001-14.408z"  /></svg>