<?xml version="1.0" standalone="no"?><!DOCTYPE svg PUBLIC "-//W3C//DTD SVG 1.1//EN" "http://www.w3.org/Graphics/SVG/1.1/DTD/svg11.dtd"><svg class="icon" width="200px" height="200.00px" viewBox="0 0 1024 1024" version="1.1" xmlns="http://www.w3.org/2000/svg"><path fill="currentColor" d="M872.803 755.99399998h0.06100001v-0.36999998zM744.056 192.8c-4.81500001-2.89-9.60200001-5.253-15.443-5.25300001-14.26299997 0-25.759 11.56000001-25.759 25.80600001 0 10.28499999 6.08899998 18.52 14.696 23.19499999 94.68 55.248 158.344 157.78800001 158.344 275.30500002 0 117.424-63.605 219.93000001-158.159 275.17999999-8.295 4.53799999-15.443 13.05-15.44300001 23.583 0 14.262 11.56000001 25.82000001 25.792 25.82000001 5.71599999 0 10.25199998-2.202 15.22500001-5.063 109.871-64.13399999 183.76400001-183.143 183.76399999-319.52 0.002-136.06700001-73.578-254.842-183.01699999-319.05400001z"  /><path fill="currentColor" d="M773.94599999 511.86800002c0-79.96500001-43.344-149.74000001-107.82099999-187.29000002-2.92-1.522-9.78599998-4.51999998-14.604-4.51999999-14.325 0-25.91399999 11.59000002-25.91399999 25.89999999 0 9.61500003 5.096 18.176 12.86499999 22.66599997 49.84000001 28.307 83.46000002 81.83 83.45999997 143.24400002 0 62.47299999-34.80199999 116.818-86.06999995 144.75-7.45799998 4.54000001-12.39799998 12.80400001-12.39800002 22.19000003 0 14.32400002 11.59000002 25.943 25.88299999 25.94299998 6.09 0.032 13.33-3.543 13.33000001-3.543 66.37200001-37.03600001 111.27-107.91299999 111.27-189.34000001zM541.36999999 124.67200001c-10.847-5.22000001-23.74100001-3.79000001-33.21599999 3.71299999-0.43600002 0.35799998-46.423 36.915-97.19600001 74.29599997-88.30800001 65.08099999-114.03599999 75.925-119.25699999 77.65000004h-110.62c-0.63699999 0-1.243 0.062-1.88000001 0.09299999h-56.50399998c-14.23099999 0-25.775 11.544-25.77500002 25.77499999v411.69700001c0 14.262 11.512 25.76200001 25.77500002 25.762l189.51099999 0.028c5.096 1.865 29.39600001 13.08000001 107.761 77 45.614 37.16199995 86.50599998 73.485 86.94 73.829 5.84200003 5.219 13.30000001 7.92000001 20.82 7.92 4.35000001 0 8.73-0.93 12.86399998-2.76500001a31.34699999 31.34699999 0 0 0 18.51700002-28.61999999s0.032-97.257 0.032-132.212c0.809-2.48399998 1.21400001-5.12699999 1.21400003-7.86299999 0-2.792-1.246-578.027-1.24600003-578.02700002a31.41199998 31.41199998 0 0 0-17.74000001-28.276z m-33.062 601.79899999c0 1.49400001-0.467 94.618-0.46699999 94.61800001-13.89-11.746-29.33200001-24.64000001-45.24000001-37.50800001-104.58999999-84.70199998-130.506-91.816-148.03100001-91.816-0.373 0-0.68400002 0.091-1.02499999 0.09100001s-0.65299999-0.09-1.02599997-0.09000001H170.394c-18.03800001 0-22.248-5.13-22.24800001-23.247v-315.95999999c0-12.32000002 1.45999998-20.057 16.29800002-20.05700001H292.51c17.09 0 43.31500003-6.991 157.787-90.84 20.38299997-14.91500002 40.33-29.93899999 57.545-43.11399999 0 0 0.373 445.20800001 0.46699999 521.368-0.53 2.11200001 0 4.319 0 6.55499999z"  /></svg>